<svg width="32" height="31" viewBox="0 0 32 31" fill="none" xmlns="http://www.w3.org/2000/svg">
<g clip-path="url(#clip0)">
<path d="M13.3545 29.1765H18.8251V31H13.3545V29.1765Z" fill="white"/>
<path d="M28.8545 10.0294H31.5898V11.853H28.8545V10.0294Z" fill="white"/>
<path d="M0.589844 10.0294H3.32514V11.853H0.589844V10.0294Z" fill="white"/>
<path d="M27.4514 2.8486L30.0299 0.270132L31.3191 1.55937L28.7407 4.13784L27.4514 2.8486Z" fill="white"/>
<path d="M0.856689 1.55658L2.14593 0.267344L4.7244 2.84581L3.43516 4.13505L0.856689 1.55658Z" fill="white"/>
<path d="M27.4496 19.0375L28.7388 17.7483L31.3173 20.3268L30.0281 21.6161L27.4496 19.0375Z" fill="white"/>
<path d="M0.854858 20.3239L3.43333 17.7454L4.72256 19.0347L2.14409 21.6131L0.854858 20.3239Z" fill="white"/>
<path d="M11.5311 23.7059H20.6488V27.353H11.5311V23.7059Z" fill="white"/>
<path d="M16.0897 10.9412C16.5933 10.9412 17.0015 10.533 17.0015 10.0294C17.0015 9.52586 16.5933 9.11765 16.0897 9.11765C15.5862 9.11765 15.178 9.52586 15.178 10.0294C15.178 10.533 15.5862 10.9412 16.0897 10.9412Z" fill="white"/>
<path d="M16.0906 0C16.0636 0 16.0364 6.07843e-05 16.0094 0.000303922C10.0386 0.0432784 5.16654 4.93642 5.14873 10.9079C5.14356 12.6442 5.55538 14.374 6.3398 15.9102C8.31292 19.7742 10.8606 19.8909 11.4188 21.8824H15.1781V12.6079C14.1168 12.2315 13.3546 11.2181 13.3546 10.0294C13.3546 8.52117 14.5816 7.29412 16.0898 7.29412C17.5981 7.29412 18.8251 8.52117 18.8251 10.0294C18.8251 11.2181 18.0628 12.2314 17.0016 12.6079V21.8824H20.7583C21.3039 19.8956 23.8507 19.7764 25.8245 15.9403C26.6138 14.4062 27.031 12.6775 27.031 10.9412C27.031 4.89672 22.1395 0 16.0906 0Z" fill="white"/>
</g>
<defs>
<clipPath id="clip0">
<rect width="31" height="31" fill="white" transform="translate(0.589844)"/>
</clipPath>
</defs>
</svg>
