<svg width="31" height="30" viewBox="0 0 31 30" fill="none" xmlns="http://www.w3.org/2000/svg">
<g clip-path="url(#clip0)">
<path d="M26.8188 4.58672V30H3.27112V4.56152H7.24143V6.60644H5.30081V28.0055H24.7891V6.60644H22.8485V4.58672H26.8188Z" fill="white"/>
<path d="M7.05859 8.36426V26.2477H23.0312V8.36426H7.05859ZM9.95254 12.733H11.8299V14.4908H9.95254V12.733ZM20.1625 21.8789H9.92734V20.1211H20.1625V21.8789ZM20.1625 18.1852H9.92734V16.4273H20.1625V18.1852Z" fill="white"/>
<path d="M21.0907 2.57408V6.60708H8.99927V2.57408H13.0932C13.0932 2.09695 13.0602 1.62732 13.2543 1.17855C13.5449 0.506714 14.2161 0.0307573 14.9518 0.0029839C15.6555 -0.0376802 16.3443 0.336207 16.7114 0.934624C17.0291 1.45259 16.9967 1.99189 16.9967 2.57408H21.0907Z" fill="white"/>
</g>
<defs>
<clipPath id="clip0">
<rect width="30" height="30" fill="white" transform="translate(0.0449219)"/>
</clipPath>
</defs>
</svg>
