<svg width="34" height="34" viewBox="0 0 34 34" fill="none" xmlns="http://www.w3.org/2000/svg">
<path d="M33.9592 18.7005L31.3884 4.12045C31.1614 2.83323 30.042 1.92758 28.7787 1.92758C28.6257 1.92758 6.26524 5.85624 6.26524 5.85624C4.82223 6.11071 3.85868 7.48678 4.11314 8.92979L4.36097 10.3354H24.5414C27.1016 10.3354 29.1844 12.4182 29.1844 14.9784V16.8389V21.3525V22.2365L31.8071 21.774C33.2501 21.5196 34.2137 20.1435 33.9592 18.7005Z" fill="#6B4F9E"/>
<path d="M27.1946 23.3424H0V29.4193C0 30.8846 1.18788 32.0724 2.65313 32.0724H24.5414C26.0067 32.0724 27.1946 30.8846 27.1946 29.4193V23.3424ZM7.89883 29.6821H3.38519C2.83575 29.6821 2.39029 29.2366 2.39029 28.6872C2.39029 28.1377 2.83575 27.6923 3.38519 27.6923H7.89883C8.44827 27.6923 8.89372 28.1377 8.89372 28.6872C8.89372 29.2366 8.44834 29.6821 7.89883 29.6821Z" fill="#6B4F9E"/>
<path d="M0.00323486 14.8491H27.1912C27.1237 13.4439 25.9632 12.3253 24.5413 12.3253H2.65311C1.23122 12.3253 0.0707036 13.4439 0.00323486 14.8491Z" fill="#6B4F9E"/>
<path d="M0 16.8389H27.1946V21.3525H0V16.8389Z" fill="#6B4F9E"/>
</svg>
