<svg width="89" height="88" viewBox="0 0 89 88" fill="none" xmlns="http://www.w3.org/2000/svg">
<path d="M75.9082 56.8872C71.1158 52.095 65.4116 48.5473 59.1881 46.3997C65.8537 41.8088 70.2329 34.1254 70.2329 25.4375C70.2329 11.4113 58.8216 0 44.7954 0C30.7692 0 19.3579 11.4113 19.3579 25.4375C19.3579 34.1254 23.7371 41.8088 30.4029 46.3997C24.1793 48.5473 18.4752 52.095 13.6828 56.8872C5.37227 65.1979 0.79541 76.2472 0.79541 88H7.67041C7.67041 67.5292 24.3246 50.875 44.7954 50.875C65.2662 50.875 81.9204 67.5292 81.9204 88H88.7954C88.7954 76.2472 84.2186 65.1979 75.9082 56.8872ZM44.7954 44C34.5601 44 26.2329 35.673 26.2329 25.4375C26.2329 15.202 34.5601 6.875 44.7954 6.875C55.0307 6.875 63.3579 15.202 63.3579 25.4375C63.3579 35.673 55.0307 44 44.7954 44Z" fill="#202020"/>
</svg>
